<?xml version="1.0" standalone="no"?>
<!DOCTYPE svg PUBLIC "-//W3C//DTD SVG 20010904//EN"
 "http://www.w3.org/TR/2001/REC-SVG-20010904/DTD/svg10.dtd">
<svg version="1.0" xmlns="http://www.w3.org/2000/svg"
 width="700.000000pt" height="700.000000pt" viewBox="0 0 700.000000 700.000000"
 preserveAspectRatio="xMidYMid meet">
<metadata>
Created by potrace 1.14, written by Peter Selinger 2001-2017
</metadata>
<g transform="translate(0.000000,700.000000) scale(0.100000,-0.100000)"
fill="#000000" stroke="none">
<path d="M410 4706 c0 -1968 -2 -2304 -14 -2358 -8 -35 -17 -74 -20 -88 -6
-31 -56 -269 -61 -290 -4 -16 -101 -471 -109 -511 -3 -13 -12 -58 -21 -99 -9
-41 -19 -84 -21 -95 -2 -11 -39 -186 -83 -390 -44 -203 -77 -372 -74 -375 2
-3 1025 -5 2271 -6 l2267 -1 95 -22 c52 -12 127 -29 165 -37 39 -9 97 -22 130
-30 94 -21 388 -85 411 -90 12 -2 81 -18 154 -34 73 -16 142 -32 154 -34 78
-16 317 -68 346 -76 19 -5 46 -11 60 -14 29 -6 235 -50 298 -64 23 -6 43 -7
43 -3 1 3 3 1046 4 2316 l2 2310 21 95 c11 52 23 106 26 120 2 14 12 58 20 97
9 40 18 87 21 105 3 18 10 49 15 68 8 33 36 165 46 220 3 14 9 41 14 60 5 19
11 47 14 62 4 24 27 141 40 203 3 11 41 193 86 405 44 212 82 396 85 410 l4
25 -2264 0 -2264 0 -123 28 c-68 15 -132 29 -143 31 -11 2 -63 14 -115 26 -52
12 -104 23 -115 26 -21 4 -85 18 -240 53 -146 33 -408 92 -430 97 -11 2 -63
13 -115 24 -83 18 -113 25 -155 36 -5 1 -21 4 -35 7 -26 5 -329 73 -367 82
l-23 5 0 -2294z m2517 134 c164 -77 307 -142 318 -144 65 -14 178 -39 225 -51
30 -7 69 -16 85 -18 17 -3 122 -26 235 -51 113 -26 219 -49 235 -52 17 -3 55
-11 85 -19 30 -8 70 -17 87 -20 18 -3 63 -12 100 -21 91 -21 85 -20 193 -43
52 -11 124 -27 160 -35 36 -8 81 -18 100 -21 19 -3 36 -8 39 -10 2 -3 -56
-139 -129 -302 -73 -164 -141 -329 -150 -368 -15 -57 -132 -604 -146 -679 -5
-28 -172 -812 -182 -853 -7 -32 -7 -32 -37 -18 -16 8 -59 27 -95 43 -72 33
-186 86 -300 139 -158 74 -184 85 -234 98 -38 10 -643 145 -894 200 -418 92
-622 140 -622 147 0 7 43 107 105 243 125 278 176 403 190 471 9 44 32 153 51
244 38 176 102 478 110 520 3 14 7 32 9 40 2 8 7 30 10 48 3 18 21 104 40 190
37 173 43 202 52 247 7 40 7 39 28 133 10 45 21 82 26 82 4 0 142 -63 306
-140z"/>
</g>
</svg>
