<?xml version="1.0" encoding="UTF-8"?>
<svg xmlns="http://www.w3.org/2000/svg" width="114" height="23" viewBox="0 0 114 23" fill="none">
  <path d="M14.8333 10.7539L13.7157 16.0382L11.6791 15.0894L6.54752 13.9497L7.47712 11.8586L8.58405 6.61739L10.5991 7.56081L15.7495 8.69507L14.8333 10.7539ZM7.46369 1.36541L1.34336 0V15.0732L0 21.3735H14.8575L21.037 22.7362V7.5635L22.3373 1.36541H7.46369Z" fill="#DE3831"/>
  <path d="M90.2387 6.82435C86.1226 6.82435 82.8959 10.1062 82.8959 14.2938C82.8959 18.4814 86.1199 21.7605 90.2387 21.7605C94.3574 21.7605 97.5841 18.4787 97.5841 14.2938C97.5841 10.1089 94.3601 6.82435 90.2387 6.82435ZM90.2387 18.1132C88.1162 18.1132 86.5767 16.5005 86.5767 14.2857C86.5767 12.071 88.1162 10.4583 90.2387 10.4583C92.3612 10.4583 93.9033 12.071 93.9033 14.2857C93.9033 16.5005 92.3612 18.1132 90.2387 18.1132Z" fill="#00204E"/>
  <path d="M67.7078 21.7605C70.4617 21.7605 73.401 20.5752 73.401 17.2504C73.401 13.9927 70.7384 13.2778 68.5998 12.7026C67.3021 12.3532 66.2758 12.079 66.2758 11.2162C66.2758 10.6518 66.6815 10.0524 67.8234 10.0524C68.2004 10.0438 68.5737 10.1293 68.9095 10.301C69.2453 10.4728 69.5332 10.7254 69.7471 11.0362L73.0034 9.5256C71.8642 7.77853 70.048 6.83779 67.8234 6.83779C65.1635 6.83779 62.4795 8.23277 62.4795 11.3506C62.4795 14.361 65.1232 15.1136 67.2484 15.721C68.5649 16.0946 69.6047 16.3903 69.6047 17.2342C69.6047 17.7019 69.3575 18.4868 67.7078 18.4868C66.5794 18.4868 65.7116 18.0056 65.2334 17.1832L61.9207 18.7125C62.9953 20.7338 64.9405 21.7605 67.7078 21.7605Z" fill="#00204E"/>
  <path d="M57.4876 1.36272C57.1142 1.35525 56.7469 1.45921 56.4327 1.66135C56.1186 1.86349 55.8717 2.15466 55.7235 2.49773C55.5754 2.84079 55.5327 3.22022 55.601 3.58764C55.6693 3.95505 55.8454 4.2938 56.1068 4.56071C56.3683 4.82761 56.7033 5.01058 57.0691 5.08628C57.4349 5.16198 57.8149 5.12698 58.1608 4.98575C58.5066 4.84452 58.8026 4.60345 59.011 4.29328C59.2193 3.98311 59.3306 3.61789 59.3307 3.24419C59.3308 2.75164 59.1378 2.2787 58.7932 1.92692C58.4486 1.57514 57.9799 1.37257 57.4876 1.36272Z" fill="#00204E"/>
  <path d="M77.9227 1.36272C77.5493 1.35578 77.1824 1.4602 76.8685 1.66268C76.5547 1.86516 76.3082 2.15652 76.1605 2.49964C76.0128 2.84276 75.9705 3.22212 76.0391 3.58936C76.1076 3.9566 76.284 4.2951 76.5455 4.56173C76.8071 4.82837 77.1421 5.01106 77.5078 5.08654C77.8736 5.16201 78.2535 5.12685 78.5992 4.98553C78.9449 4.84421 79.2407 4.60313 79.449 4.29302C79.6572 3.9829 79.7684 3.61778 79.7685 3.24419C79.7686 2.75119 79.5752 2.27785 79.2301 1.92599C78.8849 1.57414 78.4154 1.37188 77.9227 1.36272Z" fill="#00204E"/>
  <path d="M55.6499 7.23827L55.6606 21.7498L59.3307 20.1532V7.23827H55.6499Z" fill="#00204E"/>
  <path d="M79.7631 21.4003L79.755 6.41312L76.0823 8.00968L76.085 21.4003H79.7631Z" fill="#00204E"/>
  <path d="M51.7971 1.36272H48.1163V21.3735H51.7971V1.36272Z" fill="#00204E"/>
  <path d="M34.4867 13.1058C34.5073 12.9456 34.5369 12.7868 34.5753 12.63C35.0052 11.0039 36.2975 10.0658 38.1003 10.0658C39.8198 10.0658 40.967 10.9394 41.5205 12.6676C41.5673 12.8108 41.6033 12.9572 41.628 13.1058H34.4867ZM38.1299 6.82435C33.8553 6.82435 30.7521 9.9664 30.7521 14.2965C30.7076 16.2713 31.4477 18.1832 32.8102 19.613C34.2046 21.0214 36.1551 21.7632 38.4523 21.7632C40.959 21.7632 42.9122 20.8897 44.269 19.1668L41.3539 17.4573C40.567 18.1439 39.5527 18.5128 38.5087 18.4921C36.5313 18.4921 35.1772 17.6616 34.6721 16.1726C34.6183 16.0246 34.5726 15.8739 34.535 15.721H45.0347C45.1119 15.2492 45.1506 14.7719 45.1502 14.2938C45.1502 10.0336 42.1277 6.82166 38.1218 6.82166" fill="#00204E"/>
  <path d="M104.599 21.3735V11.3211L106.066 10.641C106.47 10.447 106.908 10.3373 107.356 10.3185C108.903 10.3185 110.161 11.4474 110.161 13.8127V21.3735H113.815L113.788 13.5949C113.788 9.41809 111.284 6.83779 107.34 6.83779C106.49 6.83739 105.65 7.02558 104.881 7.38879L100.918 9.21919V21.3735H104.599Z" fill="#00204E"/>
</svg>